<svg width="24" height="24" viewBox="0 0 24 24" fill="none" xmlns="http://www.w3.org/2000/svg">
<path d="M14.502 6.837L12.5 6.485L12.673 5.5L14.741 5.8635C14.8954 5.6005 15.1159 5.38244 15.3806 5.23097C15.6453 5.0795 15.945 4.99987 16.25 5H18.1925C18.3625 5 18.5 5.1375 18.5 5.3075V8.1925C18.5 8.3625 18.362 8.5 18.1925 8.5H16.25C15.8009 8.50004 15.369 8.32743 15.0436 8.01788C14.7182 7.70833 14.5243 7.28554 14.502 6.837Z" fill="black"/>
<path fill-rule="evenodd" clip-rule="evenodd" d="M15.4025 9.28149L14.9375 13H11.5V12.36C11.5 12.161 11.311 12 11.078 12H7.043C4.258 12 2 13.925 2 16.3C2 16.41 2.105 16.5 2.235 16.5H4.511C4.57237 17.1841 4.88749 17.8204 5.39436 18.2838C5.90124 18.7473 6.56319 19.0043 7.25 19.0043C7.93681 19.0043 8.59876 18.7473 9.10564 18.2838C9.61251 17.8204 9.92763 17.1841 9.989 16.5H10.444C10.463 16.5 10.4815 16.5 10.5 16.499V16.5H15.683C15.784 16.84 16.0745 17.0575 16.392 17.125C16.604 17.7606 17.0408 18.2968 17.6203 18.6331C18.1998 18.9695 18.8821 19.0826 19.5391 18.9515C20.1961 18.8203 20.7827 18.4537 21.1886 17.9207C21.5945 17.3876 21.7918 16.7247 21.7435 16.0565C21.966 15.8245 22.078 15.484 21.941 15.1155C21.7837 14.6932 21.5403 14.3082 21.2263 13.9849C20.9122 13.6617 20.5344 13.4073 20.1168 13.2379C19.6992 13.0685 19.2509 12.9877 18.8004 13.0009C18.3499 13.014 17.9071 13.1206 17.5 13.314V9.49999H16.25C15.9535 9.50047 15.6618 9.42526 15.4025 9.28149ZM8.475 16.5H6.025C6.08238 16.7826 6.23568 17.0366 6.45894 17.2191C6.68219 17.4016 6.96166 17.5012 7.25 17.5012C7.53834 17.5012 7.81781 17.4016 8.04106 17.2191C8.26432 17.0366 8.41762 16.7826 8.475 16.5ZM17.947 16.924C18.0801 17.1318 18.2717 17.2955 18.4977 17.3946C18.7237 17.4937 18.9739 17.5237 19.2169 17.4809C19.4599 17.4381 19.6848 17.3243 19.8633 17.154C20.0418 16.9836 20.1659 16.7642 20.22 16.5235L17.947 16.924Z" fill="black"/>
<path d="M4.585 10C4.59472 9.9727 4.60522 9.94569 4.6165 9.919ZM4.585 10C4.53 10.1565 4.5 10.325 4.5 10.5V11H12V10.5C12 10.3315 11.9725 10.17 11.921 10.019L11.915 10C11.8115 9.70746 11.6198 9.45421 11.3664 9.27512C11.113 9.09603 10.8103 8.99991 10.5 9H6C5.70511 8.99993 5.41674 9.08678 5.17094 9.2497C4.92514 9.41262 4.73281 9.64438 4.618 9.916" fill="black"/>
</svg>
