<svg width="24" height="24" viewBox="0 0 24 24" fill="none" xmlns="http://www.w3.org/2000/svg">
<path d="M17.25 0H6.75C5.5125 0 4.5 1.0125 4.5 2.25V21.75C4.5 22.9875 5.5125 24 6.75 24H17.25C18.4875 24 19.5 22.9875 19.5 21.75V2.25C19.5 1.0125 18.4875 0 17.25 0ZM9 1.125H15V1.875H9V1.125ZM12 22.5C11.6022 22.5 11.2206 22.342 10.9393 22.0607C10.658 21.7794 10.5 21.3978 10.5 21C10.5 20.6022 10.658 20.2206 10.9393 19.9393C11.2206 19.658 11.6022 19.5 12 19.5C12.3978 19.5 12.7794 19.658 13.0607 19.9393C13.342 20.2206 13.5 20.6022 13.5 21C13.5 21.3978 13.342 21.7794 13.0607 22.0607C12.7794 22.342 12.3978 22.5 12 22.5ZM18 18H6V3H18V18Z" fill="black"/>
</svg>
