<svg width="24" height="24" viewBox="0 0 24 24" fill="none" xmlns="http://www.w3.org/2000/svg">
<path fill-rule="evenodd" clip-rule="evenodd" d="M8.707 2.879C9.26948 2.31635 10.0324 2.00017 10.828 2H17C17.7957 2 18.5587 2.31607 19.1213 2.87868C19.6839 3.44129 20 4.20435 20 5V19C20 19.7956 19.6839 20.5587 19.1213 21.1213C18.5587 21.6839 17.7957 22 17 22H6.998C6.60413 22 6.21412 21.9224 5.85025 21.7716C5.48639 21.6208 5.1558 21.3998 4.87739 21.1212C4.59897 20.8426 4.37818 20.5119 4.22764 20.1479C4.07709 19.7839 3.99974 19.3939 4 19V8.828C4.00044 8.03276 4.3166 7.27023 4.879 6.708L8.707 2.879ZM14 18C14.5304 18 15.0391 17.7893 15.4142 17.4142C15.7893 17.0391 16 16.5304 16 16V14C16 13.4696 15.7893 12.9609 15.4142 12.5858C15.0391 12.2107 14.5304 12 14 12H10C9.46957 12 8.96086 12.2107 8.58579 12.5858C8.21071 12.9609 8 13.4696 8 14V16C8 16.5304 8.21071 17.0391 8.58579 17.4142C8.96086 17.7893 9.46957 18 10 18H14Z" fill="black"/>
</svg>
