<svg width="24" height="24" viewBox="0 0 24 24" fill="none" xmlns="http://www.w3.org/2000/svg">
<path d="M12.217 18.692C12.3657 18.6753 12.4823 18.6253 12.567 18.542C12.6503 18.4573 12.692 18.3537 12.692 18.231C12.692 18.087 12.6427 17.9763 12.544 17.899C12.4453 17.8216 12.3243 17.7913 12.181 17.808C11.4977 17.858 10.7343 17.6446 9.891 17.168C9.047 16.692 8.525 15.8953 8.325 14.778C8.29167 14.6206 8.23633 14.503 8.159 14.425C8.08167 14.347 7.983 14.308 7.863 14.308C7.73233 14.308 7.621 14.357 7.529 14.455C7.43633 14.553 7.40867 14.6996 7.446 14.895C7.704 16.283 8.345 17.2763 9.369 17.875C10.3937 18.4736 11.343 18.746 12.217 18.692ZM12 21C9.99867 21 8.33167 20.3126 6.999 18.938C5.66633 17.564 5 15.8513 5 13.8C5 12.364 5.57933 10.776 6.738 9.03598C7.89667 7.29598 9.65067 5.38665 12 3.30798C14.35 5.38598 16.104 7.29532 17.262 9.03598C18.4207 10.776 19 12.364 19 13.8C19 15.8513 18.3337 17.564 17.001 18.938C15.6677 20.3126 14.0007 21 12 21Z" fill="black"/>
</svg>
